<svg id="Layer_1" data-name="Layer 1" xmlns="http://www.w3.org/2000/svg" viewBox="0 0 33.33 33.33"><defs><style>.cls-1{fill:#c5ae80;}</style></defs><title>instagram</title><path class="cls-1" d="M13.12,3.33a9.82,9.82,0,0,0-9.79,9.79V26.88a9.82,9.82,0,0,0,9.79,9.79H26.88a9.82,9.82,0,0,0,9.79-9.79V13.12a9.82,9.82,0,0,0-9.79-9.79ZM20,28.26a8.11,8.11,0,1,1,8.11-8.11A8.11,8.11,0,0,1,20,28.26Zm9.53-16.07a1.58,1.58,0,1,1,1.58-1.57A1.57,1.57,0,0,1,29.53,12.19Z" transform="translate(-3.33 -3.33)"/></svg>