<svg id="Layer_1" data-name="Layer 1" xmlns="http://www.w3.org/2000/svg" viewBox="0 0 266.05 63.19"><defs><style>.cls-1{fill:#f5deb3;}</style></defs><title>logo</title><path class="cls-1" d="M4,64.14h9.84V3.52H4V2.28H54.69V17.61h-1a46.18,46.18,0,0,0-2.48-6.07,16.83,16.83,0,0,0-3.19-4.43,11.73,11.73,0,0,0-4.43-2.7,19.23,19.23,0,0,0-6.21-.89H22.7V30.91h5.76a20.14,20.14,0,0,0,5-.53,7.62,7.62,0,0,0,3.51-2,11.8,11.8,0,0,0,2.48-4,48.56,48.56,0,0,0,2-6.51h1V45.44h-1c-.41-1.71-.84-3.37-1.28-5a15.52,15.52,0,0,0-1.87-4.25,8.68,8.68,0,0,0-3.19-3,10.58,10.58,0,0,0-5.18-1.11H22.7v32H39.45a14.7,14.7,0,0,0,8.11-2.08,18.85,18.85,0,0,0,5.27-5,21.51,21.51,0,0,0,3-6A31.49,31.49,0,0,0,57.09,46h1V65.38H4Z" transform="translate(-4 -2.28)"/><path class="cls-1" d="M78.71,64.14h9.84V3.52H78.71V2.28H98.65L115.05,50h.18L131.62,2.28h19.59V3.52h-9.84V64.14h9.84v1.24H122.67V64.14h9.84V4.05h-.18L111.15,65.47,90.06,4.67h-.18V64.14h9.84v1.24h-21Z" transform="translate(-4 -2.28)"/><path class="cls-1" d="M169.11,64.14H179V3.52h-9.84V2.28h28.54V3.52h-9.84V64.14h9.84v1.24H169.11Z" transform="translate(-4 -2.28)"/><path class="cls-1" d="M215.9,64.14h9.84V3.52H215.9V2.28h28.54V3.52H234.6V64.14h15.78q7.8,0,12.23-4.87T269.08,46h1V65.38H215.9Z" transform="translate(-4 -2.28)"/></svg>
