<svg id="Layer_1" data-name="Layer 1" xmlns="http://www.w3.org/2000/svg" viewBox="0 0 37.96 22.35"><defs><style>.cls-1{fill:#c5ae80;}</style></defs><title>menu</title><path class="cls-1" d="M38.18,10.05H1.28A.54.54,0,0,1,1.28,9h36.9a.54.54,0,0,1,0,1.07Z" transform="translate(-0.75 -8.98)"/><path class="cls-1" d="M38.18,20.69H1.28a.53.53,0,0,1-.53-.53.53.53,0,0,1,.53-.53h36.9a.53.53,0,0,1,.53.53A.53.53,0,0,1,38.18,20.69Z" transform="translate(-0.75 -8.98)"/><path class="cls-1" d="M38.18,31.33H1.28a.53.53,0,0,1-.53-.53.53.53,0,0,1,.53-.53h36.9a.53.53,0,0,1,.53.53A.53.53,0,0,1,38.18,31.33Z" transform="translate(-0.75 -8.98)"/></svg>