<svg id="Layer_1" data-name="Layer 1" xmlns="http://www.w3.org/2000/svg" viewBox="0 0 32.89 32.89"><defs><style>.cls-1{fill:#c5ae80;}</style></defs><title>x_mobile</title><path class="cls-1" d="M35.55,37.14A.63.63,0,0,1,35.1,37L3.47,5.32a.63.63,0,1,1,.89-.89L36,36.07A.61.61,0,0,1,36,37,.59.59,0,0,1,35.55,37.14Z" transform="translate(-3.28 -4.24)"/><path class="cls-1" d="M3.91,37.14A.59.59,0,0,1,3.47,37a.61.61,0,0,1,0-.88L35.1,4.43a.63.63,0,0,1,.89.89L4.36,37A.63.63,0,0,1,3.91,37.14Z" transform="translate(-3.28 -4.24)"/></svg>