<svg id="Layer_1" data-name="Layer 1" xmlns="http://www.w3.org/2000/svg" viewBox="0 0 32.67 32.67"><defs><style>.cls-1{fill:#c5ae80;}</style></defs><title>pinterest</title><path class="cls-1" d="M19,3.67h2l1.2.14a16.17,16.17,0,0,1,9.68,5,15.91,15.91,0,0,1,4.18,8.33c.1.61.17,1.22.25,1.83v2c0,.4-.09.8-.14,1.2a16.14,16.14,0,0,1-5,9.68,15.94,15.94,0,0,1-8.34,4.18c-.6.1-1.21.17-1.82.25H19c-.63-.08-1.26-.15-1.89-.26s-1.25-.28-1.92-.44a18.08,18.08,0,0,0,1.92-3.93c.41-1.37.74-2.76,1.12-4.18a4.07,4.07,0,0,0,1.68,1.36,6.15,6.15,0,0,0,4.92-.11,8.22,8.22,0,0,0,4.34-4.11,11.06,11.06,0,0,0,1.08-7.44,9,9,0,0,0-5.63-6.67A11.75,11.75,0,0,0,17.45,10a9.65,9.65,0,0,0-5,2.56,9.37,9.37,0,0,0-2.83,8.22,7.71,7.71,0,0,0,1.67,3.9,4.27,4.27,0,0,0,1.55,1.25c.31.14.48.09.55-.19.16-.63.32-1.26.45-1.89a.61.61,0,0,0-.09-.44,6.33,6.33,0,0,1-1.12-4.86,6.63,6.63,0,0,1,2.9-4.67,7.61,7.61,0,0,1,6.39-1,6,6,0,0,1,4.26,3.64,7.28,7.28,0,0,1,.51,3.3,9.83,9.83,0,0,1-.91,3.85,4.86,4.86,0,0,1-3.74,3,2.4,2.4,0,0,1-2.84-3c.3-1.15.66-2.28,1-3.42a5.7,5.7,0,0,0,.3-2.53A2,2,0,0,0,18.24,16a2.78,2.78,0,0,0-2.19,1.66,5.61,5.61,0,0,0-.17,4.42,1.06,1.06,0,0,1,.07.52c-.5,2.19-1,4.37-1.55,6.55a14,14,0,0,0-.51,4.31c0,.55.08,1.11.12,1.72l-.36-.15A16.32,16.32,0,0,1,3.93,22.88c-.11-.62-.18-1.24-.26-1.86V19c.05-.4.09-.8.14-1.2a16.14,16.14,0,0,1,5-9.68,15.94,15.94,0,0,1,8.34-4.18C17.76,3.82,18.37,3.75,19,3.67Z" transform="translate(-3.67 -3.67)"/></svg>